# xmcd
#
# Track frame offsets:
#	150
#	15890
#	28403
#	46069
#	59718
#	71586
#	87958
#	104564
#	121836
#	130049
#	144343
#	167644
#	187744
#	190953
#	203137
#	222372
#	234481
#	249809
#	268747
#	282297
#	300130
#	318961
#	339788
#
# Disc length: 4706 seconds
#
# Revision: 0
# Processed by: cddbd v1.5.2PL0 Copyright (c) Steve Scherf et al.
# Submitted via: EasyCDDAExtractor 15.2.5.1
#
DISCID=39126017
DTITLE=Various Artist - Independent Almanac 2012 1/2
DYEAR=1900
DGENRE=
TTITLE0=CATE LE BON - Puts Me To Work
TTITLE1=CLOUD NOTHING - Stay Useless
TTITLE2=HOSPITALITY - Eighth Avenue
TTITLE3=SHARON VAN ETTEN - Serpents
TTITLE4=PERFUME GENIUS - Take Me Home
TTITLE5=JULIA HOLTER - Goddess Eyes I
TTITLE6=THE MEN - Open Your Heart
TTITLE7=TANLINES - All Of Me
TTITLE8=THE LUMINEERS - Flowers In Your Hair
TTITLE9=FATHER JOHN MISTY - Hollywood Forever Cemetery Sings
TTITLE10=LOWER DENS - Brains
TTITLE11=PATRICK WATSON - Into Giants
TTITLE12=OFF! - I Got News For You
TTITLE13=ROYAL HEADACHE - Down The Lane
TTITLE14=BEACH HOUSE - Myth
TTITLE15=BEST COAST - The Only Place
TTITLE16=HOT WATER MUSIC - Drag My Body
TTITLE17=KILLER MIKE - Reagan
TTITLE18=THE MYNABIRDS - Body Of Work
TTITLE19=THE TALLEST MAN ON EARTH - 1904
TTITLE20=A PLACE TO BURY STRANGERS - You Are The One
TTITLE21=TWIN SHADOW - Run My Heart
TTITLE22=WOODY GUTHRIE - Going Down The Road (Feeling Bad)
EXTD=
EXTT0=
EXTT1=
EXTT2=
EXTT3=
EXTT4=
EXTT5=
EXTT6=
EXTT7=
EXTT8=
EXTT9=
EXTT10=
EXTT11=
EXTT12=
EXTT13=
EXTT14=
EXTT15=
EXTT16=
EXTT17=
EXTT18=
EXTT19=
EXTT20=
EXTT21=
EXTT22=
PLAYORDER=
